Coordinates
version=1
nRows=10
nColumns=40
inDegrees=yes

Units are S.I. units (second, meters, Newtons, ...)
Angles are in degrees.

endheader
time	pelvis_tilt	pelvis_list	pelvis_rotation	pelvis_tx	pelvis_ty	pelvis_tz	hip_flexion_r	hip_adduction_r	hip_rotation_r	knee_angle_r	knee_angle_r_beta	ankle_angle_r	subtalar_angle_r	mtp_angle_r	hip_flexion_l	hip_adduction_l	hip_rotation_l	knee_angle_l	knee_angle_l_beta	ankle_angle_l	subtalar_angle_l	mtp_angle_l	lumbar_extension	lumbar_bending	lumbar_rotation	arm_flex_r	arm_add_r	arm_rot_r	elbow_flex_r	pro_sup_r	wrist_flex_r	wrist_dev_r	arm_flex_l	arm_add_l	arm_rot_l	elbow_flex_l	pro_sup_l	wrist_flex_l	wrist_dev_l
      1.61000000	      2.31185798	     -3.45497731	     -9.16098987	      0.54053248	      0.88275447	      1.45622364	    -13.90564229	      2.16698457	     -9.98708456	    -20.36656885	     -0.35546368	     11.38851234	      9.37252300	     -8.87228782	     24.56049239	      5.47027175	     12.08569409	    -14.76074838	     -0.25762366	      2.44790830	     -4.30329681	     -9.43651711	     -7.47940859	      4.68198132	      7.86982647	     17.98164108	    -15.86549563	     14.03684213	     35.24105878	     89.95437384	      0.00000000	      0.00000000	     -8.78972677	      6.67249483	    -15.66019800	      6.38487340	     89.95437384	      0.00000000	      0.00000000
      1.62000000	      2.42921826	     -2.93420203	     -9.72536679	      0.55521962	      0.88156265	      1.45675199	    -14.66126842	      1.13931887	     -9.69296142	    -20.82589113	     -0.36348037	     11.06468638	      9.68936587	     -8.95396268	     24.42744753	      4.85757017	     11.85290912	    -15.29664658	     -0.26697685	      2.60631780	     -4.26126720	     -9.51322615	     -7.34891788	      3.96493494	      8.34006431	     17.60830848	    -15.78393204	     12.92480254	     36.47579252	     89.95437384	      0.00000000	      0.00000000	     -9.46751701	      6.86139599	    -16.06049321	      5.95865524	     89.95437384	      0.00000000	      0.00000000
      1.63000000	      2.29294369	     -2.54299079	    -10.07258967	      0.56990459	      0.88011700	      1.45708306	    -15.05209504	      0.40866692	     -9.14538370	    -21.45829349	     -0.37451787	     10.45055081	      9.45939889	     -8.74919545	     24.70973439	      4.30847013	     11.10984215	    -16.41443221	     -0.28648589	      2.29251072	     -4.04573195	     -9.31205827	     -6.92719091	      3.46222312	      8.27048653	     17.52924086	    -15.58939220	     12.61813009	     37.26912478	     89.95437384	      0.00000000	      0.00000000	    -10.42578754	      7.10224179	    -16.02275512	      6.03397567	     89.95437384	      0.00000000	      0.00000000
      1.64000000	      2.27541094	     -1.69062750	    -10.22024990	      0.58540289	      0.87874340	      1.45652655	    -15.46459872	     -1.13282505	    -10.02995174	    -22.20885099	     -0.38761757	      9.49722135	     11.33823749	    -10.04720260	     24.70496736	      2.89106302	      9.64008536	    -17.47109470	     -0.30492813	      1.80187135	     -0.66309497	    -10.03159745	     -6.43275295	      2.49102884	      8.22656433	     16.95418678	    -15.31343216	     11.32683663	     38.24411656	     89.95437384	      0.00000000	      0.00000000	    -11.07450892	      7.31858834	    -16.35141606	      5.66901708	     89.95437384	      0.00000000	      0.00000000
      1.65000000	      2.17468701	     -1.28064510	    -10.43773730	      0.60083047	      0.87752551	      1.45655984	    -15.87836286	     -1.86581252	     -9.51308583	    -22.83145722	     -0.39848410	      8.42835012	     10.85066635	     -9.72958486	     25.09263076	      2.36865736	      9.53484713	    -19.50215063	     -0.34037674	     -0.84903027	      0.71850593	     -9.31777860	     -5.93857310	      1.97443084	      8.14814753	     16.51707495	    -15.15713429	     10.89374279	     39.02977013	     89.95437384	      0.00000000	      0.00000000	    -11.78603346	      7.55751028	    -16.30036373	      5.56717488	     89.95437384	      0.00000000	      0.00000000
      1.66000000	      2.03585012	     -0.75769220	    -10.56800121	      0.61634518	      0.87649590	      1.45629735	    -16.08979907	     -2.71649695	     -9.06111865	    -23.67497942	     -0.41320634	      7.11401682	     10.40296893	     -9.38103675	     25.46472311	      1.63346268	      8.98589996	    -21.51276497	     -0.37546858	     -2.44457376	      1.70651864	     -8.84176041	     -5.36989596	      1.35765159	      8.03539962	     15.99586172	    -14.96126396	     10.40677480	     39.66687645	     89.95437384	      0.00000000	      0.00000000	    -12.37206476	      7.75588996	    -16.11139787	      5.48503393	     89.95437384	      0.00000000	      0.00000000
      1.67000000	      1.57814505	      0.05881990	    -10.51241558	      0.63172117	      0.87525615	      1.45526023	    -15.50911902	     -4.00056480	     -9.43978817	    -25.23573098	     -0.44044659	      5.60451035	     10.84948322	     -9.40870134	     26.25555507	      0.38034550	      7.55173324	    -23.44076595	     -0.40911855	     -2.83644525	      4.02868824	     -8.75993416	     -4.39566080	      0.54540051	      7.82177098	     15.29302342	    -14.65375775	      9.42040464	     40.18113099	     89.95437384	      0.00000000	      0.00000000	    -12.85124790	      7.93500635	    -15.90997138	      5.40349462	     89.95437384	      0.00000000	      0.00000000
      1.68000000	      1.53038428	      0.64390399	    -10.49523392	      0.64730120	      0.87493729	      1.45482958	    -15.47923927	     -4.88433443	     -9.13314942	    -26.54490203	     -0.46329594	      3.55071820	      9.98809334	     -8.89080682	     26.55975072	     -0.30884319	      7.62185674	    -25.37470129	     -0.44287208	     -2.99085517	      4.33150666	     -8.44490941	     -3.92550675	     -0.15757910	      7.57251280	     14.77794799	    -14.41203943	      9.14537930	     40.44651388	     89.95437384	      0.00000000	      0.00000000	    -13.28813509	      8.18149655	    -16.05802996	      5.49963152	     89.95437384	      0.00000000	      0.00000000
      1.69000000	      1.40864636	      1.11987943	    -10.53802454	      0.66298287	      0.87475090	      1.45472087	    -15.09179891	     -5.67101259	     -8.91667697	    -28.25519026	     -0.49314610	      0.94633036	      9.10178001	     -8.26405169	     26.70832829	     -0.81815926	      7.79233184	    -27.02324332	     -0.47164457	     -1.83498277	      4.94212954	     -8.13322531	     -3.38331342	     -0.73442969	      7.46036444	     14.07462106	    -14.09032972	      8.59549791	     40.68907074	     89.95437384	      0.00000000	      0.00000000	    -13.61892738	      8.45149423	    -16.11942930	      5.73683718	     89.95437384	      0.00000000	      0.00000000
      1.70000000	      1.39224593	      1.56073447	    -10.60340169	      0.67846244	      0.87486270	      1.45449439	    -14.54285185	     -6.48256821	     -8.73614755	    -30.28530608	     -0.52857831	     -1.82386262	      8.14849404	     -7.59324488	     26.53628016	     -1.43692485	      7.49717694	    -28.46510300	     -0.49680977	     -0.56606044	      5.04819650	     -7.87115562	     -2.98575318	     -1.27372925	      7.38999808	     13.46955724	    -13.83252951	      8.26010312	     40.70766579	     89.95437384	      0.00000000	      0.00000000	    -13.81267542	      8.69141744	    -16.36299194	      5.96181758	     89.95437384	      0.00000000	      0.00000000
